<svg version="1.1" id="Layer_1" xmlns="http://www.w3.org/2000/svg" xmlns:xlink="http://www.w3.org/1999/xlink" x="0px" y="0px"
	 width="100%" viewBox="0 0 1024 272" enable-background="new 0 0 1024 272" xml:space="preserve">
<path fill="#000000" opacity="1.000000" stroke="none" 
	d="
M395.468811,109.326218 
	C397.588531,109.218193 399.364044,109.140991 401.089020,108.139000 
	C399.399048,105.788216 397.385010,106.499290 395.469055,106.723045 
	C389.016541,107.476631 382.620697,108.517639 376.276703,109.959778 
	C373.734344,110.537712 370.598358,111.106934 369.339355,107.851357 
	C368.161011,104.804451 370.550873,102.906456 372.625397,101.222679 
	C375.060425,99.246323 377.967072,98.540077 381.066498,98.758858 
	C387.320374,99.200294 393.350220,98.579247 398.985291,95.520660 
	C400.983154,94.436264 403.201233,94.634933 405.339050,95.184456 
	C408.778534,96.068550 412.257690,95.968475 416.950592,95.889961 
	C411.877167,93.607933 408.169128,91.296921 406.503510,86.859375 
	C405.037842,82.954453 406.181244,81.014069 410.354584,81.019493 
	C414.697784,81.025139 419.076111,81.504028 422.891052,83.820122 
	C426.824066,86.207893 430.827240,86.553696 434.752197,84.336914 
	C444.186951,79.008255 453.929443,79.693001 463.814819,82.479210 
	C472.631287,84.964142 481.389435,87.658165 490.222717,90.079811 
	C494.180359,91.164772 498.255371,91.575096 502.300690,89.769638 
	C496.281311,89.103600 490.213165,89.010201 484.379181,87.216454 
	C481.649933,86.377296 478.989685,85.429565 476.599457,83.891327 
	C474.818390,82.745148 472.559296,81.640785 473.183960,78.955704 
	C473.718536,76.657898 475.863861,76.202118 477.860657,75.818199 
	C480.120331,75.383751 482.390778,75.005592 485.320312,74.485001 
	C483.275757,72.042114 481.527191,70.123741 479.986511,68.050873 
	C478.989014,66.708801 478.220306,65.117599 479.352356,63.434612 
	C480.308807,62.012722 481.855286,61.681988 483.357452,62.004620 
	C493.135773,64.104858 503.036926,65.978287 510.931122,72.829987 
	C512.904297,74.542572 514.842346,75.236122 517.592102,75.347359 
	C524.031799,75.607880 529.989990,78.108124 535.100159,81.946411 
	C539.986633,85.616608 538.950745,91.899841 533.501465,95.775635 
	C530.341248,98.023300 526.233765,97.678261 522.912170,99.798210 
	C524.533020,102.292763 526.880615,101.821083 528.908386,101.854790 
	C535.738281,101.968323 542.571106,101.921402 549.402771,101.910667 
	C552.279663,101.906143 555.115906,102.164131 557.503235,103.921356 
	C559.229553,105.192062 561.277344,106.625046 560.409790,109.166489 
	C559.620422,111.478638 557.327026,111.377228 555.309143,111.372780 
	C545.813843,111.351837 536.318481,111.274719 526.823425,111.309959 
	C524.732239,111.317711 522.548706,110.774498 520.208313,111.971039 
	C522.132446,115.233986 525.205688,115.760208 528.336304,115.813881 
	C535.498901,115.936668 542.664795,115.914047 549.829041,115.876465 
	C553.111389,115.859245 556.131165,116.482803 558.589783,118.810371 
	C559.825012,119.979813 561.010254,121.288841 560.362366,123.153687 
	C559.744446,124.932503 558.095886,125.902336 556.429199,125.727539 
	C542.630981,124.280357 528.789368,125.804459 514.988770,124.990677 
	C514.660400,124.971313 514.265198,124.951782 514.023132,124.769936 
	C507.686523,120.010109 500.634979,121.814255 493.588623,122.191338 
	C479.850128,122.926537 467.004791,118.160828 454.005402,114.707581 
	C448.103363,113.139717 442.785614,113.046768 437.084137,115.630875 
	C423.478973,121.797234 409.213135,124.144859 394.224335,122.430977 
	C387.800629,121.696457 382.625946,126.053093 377.021301,128.455719 
	C374.274139,129.633377 371.683807,131.171738 368.982727,132.463730 
	C367.186646,133.322815 365.409912,133.333527 363.967285,131.702698 
	C362.537506,130.086426 362.864594,128.352264 363.682007,126.575768 
	C365.147186,123.391487 367.355652,120.891960 370.807098,120.041008 
	C377.829285,118.309677 384.546265,116.111862 389.968781,110.965477 
	C391.278595,109.722374 393.216339,109.305908 395.468811,109.326218 
z"/>
<path fill="#000000" opacity="1.000000" stroke="none" 
	d="
M587.532959,196.372910 
	C586.705750,198.562698 585.696045,200.195450 583.455872,199.757095 
	C581.126648,199.301331 580.482300,197.262589 580.158203,195.230942 
	C579.805786,193.022018 580.522156,190.904327 581.243591,188.887436 
	C582.812988,184.499512 584.719543,180.230820 586.248962,175.830246 
	C588.613037,169.028625 592.889343,165.273651 600.451477,165.937439 
	C602.582458,166.124512 604.803040,165.972656 606.760315,164.805344 
	C608.863770,163.550842 609.433167,161.658279 609.312195,159.073395 
	C604.769958,158.969009 600.375610,159.615631 596.602234,156.772446 
	C592.364014,153.578964 592.184387,150.902267 596.853210,148.724869 
	C604.764221,145.035446 613.052795,143.002975 618.644653,134.648041 
	C622.121338,129.453491 630.204590,129.390411 636.856201,130.291504 
	C646.690857,131.623764 655.269165,135.832321 662.907898,142.110977 
	C668.695007,146.867661 674.329468,151.865692 681.210205,155.075577 
	C682.862671,155.846436 684.567200,156.574829 686.322388,157.042511 
	C690.206848,158.077560 691.362549,156.928345 690.001465,153.033249 
	C687.775818,146.664001 686.373535,140.201965 686.836670,133.440796 
	C687.006531,130.961624 687.364563,128.469727 687.927063,126.051147 
	C688.377502,124.114502 689.122314,122.025215 691.587341,121.869484 
	C693.748108,121.732964 694.854980,123.390556 695.618591,125.088036 
	C697.530273,129.337494 699.309021,133.646606 701.156677,137.925064 
	C701.533997,138.798737 701.979126,139.643143 702.667725,141.070435 
	C705.447449,136.101974 707.411377,131.269318 711.014221,127.527626 
	C712.603760,125.876823 714.250488,123.641434 716.916748,124.897476 
	C719.458130,126.094627 719.354553,128.739059 718.960083,131.062790 
	C717.490234,139.720612 717.258545,148.733673 712.084229,156.383408 
	C710.697205,158.433945 711.599060,160.119812 712.699707,161.900345 
	C714.360474,164.586990 716.024048,167.285370 717.457092,170.095718 
	C718.982971,173.088272 719.352112,176.197861 716.887207,178.961243 
	C714.290894,181.872055 711.097107,183.491333 707.112244,182.552872 
	C705.181885,182.098267 703.275269,181.407043 701.471680,180.575928 
	C696.492859,178.281616 690.313599,179.049438 687.212402,182.999283 
	C683.968079,187.131287 685.040161,191.607040 687.688171,195.565750 
	C692.025696,202.050339 696.095215,208.853378 703.618408,212.387070 
	C705.419495,213.233047 707.491516,214.406708 706.723389,216.848526 
	C705.905334,219.449158 703.417847,220.126389 701.023682,219.933594 
	C696.425720,219.563309 692.902283,217.168915 690.334961,213.364014 
	C684.920410,205.339737 677.004028,199.924362 669.839355,193.728241 
	C669.107544,193.095398 668.234253,192.494202 666.399048,193.178925 
	C665.952942,199.203766 666.180237,205.305084 669.669250,210.925674 
	C670.457581,212.195648 671.456848,213.333405 672.269409,214.589981 
	C673.021667,215.753311 673.470520,217.056198 672.528870,218.314316 
	C671.391357,219.834137 669.790588,220.101166 668.046265,219.601303 
	C662.803345,218.098923 660.160400,214.193588 659.000061,209.232925 
	C657.598022,203.238876 656.401978,197.190491 655.331726,191.127670 
	C654.833435,188.304810 653.482544,186.341415 651.280090,184.567337 
	C647.262024,181.330704 643.445312,177.841232 639.593140,174.402939 
	C637.672791,172.688950 635.740356,172.207474 633.209839,173.192459 
	C628.823792,174.899658 624.187927,175.387085 619.479797,175.446884 
	C613.326721,175.525024 608.648499,177.866104 606.047729,183.923325 
	C604.271729,188.059769 602.293823,192.094055 601.276917,196.502335 
	C600.790100,198.612656 599.931396,200.487335 597.482971,200.407532 
	C594.671936,200.315903 594.070862,197.953903 593.898499,195.778305 
	C593.529968,191.126160 595.765015,187.058640 597.183777,182.814209 
	C597.807739,180.947327 599.050781,179.268280 598.898560,175.924316 
	C591.594910,181.314346 590.135010,188.962967 587.532959,196.372910 
z"/>
<path fill="#000000" opacity="1.000000" stroke="none" 
	d="
M842.697632,116.532280 
	C843.244080,113.023956 843.914917,109.939392 845.377258,107.089424 
	C846.078613,105.722595 846.921570,104.354126 848.623596,104.317802 
	C850.583862,104.275963 851.659363,105.752304 852.160339,107.365036 
	C854.680298,115.476372 857.228210,123.658913 856.546936,132.263351 
	C856.298401,135.402176 856.960205,137.219910 859.620789,138.786514 
	C862.189087,140.298752 864.592407,142.147018 866.872681,144.078491 
	C869.899109,146.642059 872.375916,149.675858 871.021484,154.023087 
	C869.671936,158.354675 865.975403,161.080566 862.008118,160.750061 
	C854.906921,160.158508 852.762451,164.663483 850.570679,169.604355 
	C848.797302,173.602158 846.629211,177.283447 843.531677,180.419342 
	C840.505005,183.483429 839.153015,187.291107 840.393311,191.423111 
	C842.687622,199.066574 844.980713,206.776764 851.203308,212.461258 
	C852.764038,213.887054 854.825256,215.578308 853.258057,217.960358 
	C851.583313,220.505890 848.861755,220.035034 846.471375,219.051590 
	C842.356445,217.358597 839.990906,213.995239 838.446106,209.958893 
	C835.749634,202.913391 831.878723,196.546295 826.827209,190.654068 
	C826.669067,197.755325 826.820618,204.763321 830.063660,211.392868 
	C831.264465,213.847519 834.720520,216.728394 830.891296,219.088837 
	C827.454224,221.207581 824.671326,218.337143 822.458069,215.718765 
	C819.710938,212.468643 819.439758,208.375488 819.016907,204.426315 
	C818.605286,200.581787 817.636841,196.903259 816.499695,193.244888 
	C815.894470,191.297729 814.955261,189.911057 812.528442,190.773148 
	C801.874451,194.557770 791.204529,198.297821 780.554260,202.092850 
	C779.625366,202.423843 778.755676,202.996582 778.383118,204.834717 
	C781.345703,207.892426 785.542297,209.219849 789.775635,210.476242 
	C791.197937,210.898376 792.722961,211.098083 794.033936,211.740433 
	C795.602783,212.509201 796.665955,213.877914 796.261719,215.793716 
	C795.902771,217.494125 794.513855,218.174835 792.971252,218.431366 
	C788.541016,219.168076 784.383362,218.040405 780.355530,216.346390 
	C775.535522,214.319214 771.389526,211.224884 767.564819,207.734558 
	C765.446838,205.801758 763.246277,204.842041 760.338867,205.293365 
	C758.370300,205.598953 756.331665,205.471786 754.480408,204.507965 
	C752.163879,203.301910 751.221558,201.752060 753.087952,199.350662 
	C755.558472,196.172058 758.200928,193.184326 761.757812,191.186554 
	C763.492004,190.212494 764.330505,189.162033 764.181641,186.863159 
	C762.463135,160.321457 781.583740,143.944641 808.016541,149.235718 
	C814.382507,150.509979 820.683594,152.147614 827.258911,151.871872 
	C829.975891,151.757919 832.566589,151.252457 834.742432,149.500504 
	C838.413513,146.544678 838.782471,143.069855 835.672363,139.153366 
	C830.940796,133.195129 827.543030,126.583191 825.603638,119.238571 
	C825.182983,117.645378 824.957031,115.972527 824.876770,114.324913 
	C824.779358,112.325020 824.736633,110.137199 826.974487,109.144356 
	C829.234619,108.141632 830.807922,109.683197 832.178955,111.130516 
	C835.145508,114.261909 837.998047,117.501244 840.932800,120.735687 
	C842.833313,119.968300 842.325134,118.246986 842.697632,116.532280 
z"/>
<path fill="#000000" opacity="1.000000" stroke="none" 
	d="
M180.142548,130.356171 
	C176.596573,128.606064 172.825531,126.702187 173.247467,122.867836 
	C173.662018,119.100388 178.292847,118.697693 180.968613,118.872375 
	C191.087006,119.532913 199.150040,115.232605 208.042999,111.151291 
	C220.057175,105.637550 233.914078,105.327728 246.989471,102.825577 
	C253.196854,101.637711 259.389465,100.334518 265.524475,98.822662 
	C268.691132,98.042313 271.791595,96.786674 273.512634,92.281296 
	C269.517456,92.281296 266.103363,92.351173 262.693207,92.265472 
	C257.101349,92.124939 251.817596,90.678719 246.933411,87.979477 
	C245.215393,87.030022 243.275650,85.802643 243.797943,83.380646 
	C244.252396,81.273216 246.304108,80.996826 248.050858,80.415024 
	C250.883331,79.471596 254.089417,80.251060 257.155823,78.276596 
	C254.856430,75.063515 252.495895,71.971252 250.378967,68.720352 
	C249.312607,67.082764 248.193115,65.112671 249.853851,63.205685 
	C251.452591,61.369884 253.514832,61.894520 255.399536,62.709957 
	C264.660156,66.716675 274.786835,69.395905 280.499207,78.917587 
	C281.140167,79.985985 282.110291,80.469147 283.457794,80.301010 
	C291.493591,79.298325 297.537018,83.665550 303.322998,88.160736 
	C309.692017,93.108925 308.585876,100.188873 301.168121,103.479019 
	C299.517975,104.210938 297.668335,104.821304 295.892303,104.874184 
	C291.975830,104.990784 290.307983,107.292274 289.406769,110.630356 
	C287.929626,116.102051 286.545959,121.627319 282.769836,126.096466 
	C281.504028,127.594612 281.978821,128.786774 283.016998,130.076492 
	C284.688477,132.152985 286.314941,134.265671 287.963379,136.360779 
	C290.401031,139.458878 290.929626,142.804962 288.475372,146.006714 
	C285.622742,149.728241 281.766785,152.185165 276.938080,151.810898 
	C274.028442,151.585388 273.284180,148.436966 275.355133,146.218399 
	C276.026703,145.498962 276.890442,144.943085 277.718170,144.390076 
	C278.419159,143.921753 279.195007,143.565521 279.740173,143.267639 
	C276.177826,137.416199 270.253296,134.528885 264.833496,135.296356 
	C253.446655,136.908798 241.976990,137.697418 230.500580,138.124268 
	C223.593460,138.381180 217.630554,139.964935 212.322342,144.843750 
	C201.559189,154.736206 188.699356,160.722656 174.460693,164.069977 
	C167.542770,165.696289 162.993561,171.226624 158.120636,175.955200 
	C155.967087,178.044952 154.028748,180.354660 151.389267,181.851379 
	C150.038284,182.617447 148.530777,182.956467 147.211075,181.738724 
	C146.087524,180.701950 146.162720,179.374146 146.572189,178.028229 
	C147.821747,173.921036 149.933075,170.433167 153.637222,168.056732 
	C158.616562,164.862167 162.909744,161.000946 165.647018,155.629135 
	C166.786926,153.392151 168.794739,152.418167 171.096680,151.609467 
	C181.083054,148.101196 186.431870,140.061600 191.663300,130.735550 
	C187.339447,131.096954 183.870361,131.828217 180.142548,130.356171 
z"/>
<path fill="#000000" opacity="1.000000" stroke="none" 
	d="
M981.666870,178.355927 
	C978.353760,186.698898 977.247864,194.686798 980.113098,203.064224 
	C981.322205,206.599380 983.032593,209.744247 985.028564,212.822403 
	C985.945312,214.236130 986.811523,215.790771 985.402100,217.391663 
	C983.995911,218.988724 982.214722,219.032166 980.368530,218.290924 
	C974.464661,215.920395 972.692261,210.800812 971.817383,205.175842 
	C971.212585,201.287521 970.408203,197.504456 967.853088,193.837662 
	C967.952026,201.791168 964.036682,206.845901 957.578979,210.561111 
	C959.751038,209.955902 961.909363,209.294846 964.098511,208.759521 
	C966.873047,208.081024 969.245667,208.707214 970.034363,211.713165 
	C970.782349,214.564056 969.280212,216.611938 966.659790,217.602051 
	C965.131958,218.179291 963.421631,218.332901 961.775696,218.528275 
	C952.471252,219.632690 943.141541,218.998245 933.824280,218.785629 
	C930.866272,218.718140 928.710388,217.367355 928.760132,213.890793 
	C928.818115,209.836594 926.807800,209.016983 923.270996,210.371719 
	C918.204773,212.312210 914.197571,210.393295 910.729492,206.699280 
	C907.078674,202.810593 907.436523,200.593765 912.120728,198.332825 
	C917.577576,195.699005 919.369934,193.605942 921.526428,188.087677 
	C924.561768,180.320938 931.164673,175.932999 937.727539,171.635178 
	C943.439087,167.894897 949.354370,164.466827 955.149109,160.851868 
	C956.840515,159.796707 958.441101,158.592972 960.059692,157.424683 
	C967.680908,151.924026 966.617432,145.566193 960.598145,138.360245 
	C955.912903,132.751297 951.975769,126.944023 950.175110,119.845779 
	C949.605286,117.599701 948.974304,114.995583 951.459778,113.501167 
	C953.871399,112.051163 955.620789,114.102715 957.048645,115.559357 
	C960.515076,119.095764 963.738770,122.870255 967.782898,127.349373 
	C969.568909,121.165222 970.230164,116.364777 972.480408,112.115616 
	C973.411011,110.358475 974.480896,108.649551 975.687744,107.071854 
	C976.802673,105.614243 978.180786,104.149811 980.300354,104.862358 
	C982.154541,105.485703 982.505493,107.308792 982.677185,108.953026 
	C983.338989,115.292519 983.314392,121.693687 981.324951,127.748802 
	C980.086182,131.519089 981.121948,133.065933 984.454041,134.543747 
	C987.620239,135.948013 990.596252,137.899780 993.408997,139.949615 
	C996.302734,142.058441 998.744995,144.767654 997.905945,148.769730 
	C997.073669,152.739609 994.161377,154.910614 990.496582,156.189743 
	C982.125366,159.111526 982.229858,159.106094 982.472168,168.010956 
	C982.562012,171.315536 982.028687,174.637100 981.666870,178.355927 
z"/>
<path fill="#000000" opacity="1.000000" stroke="none" 
	d="
M83.147964,117.284515 
	C90.813683,117.791161 96.805435,121.336502 102.514885,125.478752 
	C105.453186,127.610512 107.849777,130.241730 107.125511,134.243256 
	C106.357185,138.488190 103.340736,140.693359 99.419472,141.897446 
	C93.270363,143.785599 92.762688,145.055954 96.330971,150.328888 
	C100.338089,156.250259 99.881165,162.359329 96.874313,168.327728 
	C95.342789,171.367706 95.468414,173.838531 96.909485,176.773499 
	C98.664169,180.347183 100.134979,184.085037 101.423729,187.856064 
	C102.843636,192.010925 102.298912,196.097122 99.930435,199.836945 
	C98.805679,201.612946 97.267700,202.991074 94.972725,202.375519 
	C92.433289,201.694397 92.429359,199.570023 92.699524,197.508804 
	C93.484100,191.522812 91.432030,186.510803 87.653870,181.719421 
	C84.119095,184.744400 81.674667,187.390305 83.782501,192.454285 
	C85.430832,196.414337 83.184402,200.214371 80.875702,203.605927 
	C79.946327,204.971191 78.688828,206.368759 79.652565,208.144562 
	C80.719070,210.109711 82.797371,210.020599 84.548973,209.712387 
	C87.649849,209.166763 90.673317,208.195816 93.750069,207.494537 
	C97.103699,206.730103 99.992393,207.490692 100.699326,211.201675 
	C101.363136,214.686340 99.346886,217.141235 95.971741,217.687927 
	C91.552513,218.403732 87.041206,218.870758 82.569405,218.871536 
	C74.750374,218.872910 66.931931,218.413376 59.111816,218.198761 
	C56.586552,218.129471 54.861610,217.065720 53.268314,215.034653 
	C50.176273,211.093124 46.845711,207.815292 40.910828,208.132019 
	C35.505795,208.420486 30.956751,203.444473 30.204809,198.045868 
	C29.857662,195.553513 31.128708,194.404984 33.272266,193.658920 
	C35.849617,192.761887 38.507462,193.181168 41.847588,193.278778 
	C41.874638,180.932098 52.673653,175.986801 58.937286,167.877304 
	C65.954468,158.792221 71.128120,148.839035 74.781479,138.035278 
	C76.098557,134.140411 73.625435,128.629898 69.838570,126.901833 
	C64.639908,124.529510 59.789806,121.675453 55.950439,117.351059 
	C54.620049,115.852592 53.334812,114.297768 53.312359,112.127052 
	C53.238926,105.027855 55.296581,103.544930 62.108551,105.690178 
	C69.779083,108.105804 77.335800,110.705315 83.147964,117.284515 
z"/>
</svg>